<?xml version="1.0" encoding="utf-8"?>
<!-- Generator: Adobe Illustrator 27.5.0, SVG Export Plug-In . SVG Version: 6.00 Build 0)  -->
<svg version="1.1" id="圖層_1" xmlns="http://www.w3.org/2000/svg" xmlns:xlink="http://www.w3.org/1999/xlink" x="0px" y="0px"
	 viewBox="0 0 616.8 159.7" style="enable-background:new 0 0 616.8 159.7;" xml:space="preserve">
<style type="text/css">
	.st0{fill:#162049;}
	.st1{fill:url(#SVGID_1_);}
	.st2{fill:url(#SVGID_00000056411686967058038520000016595095285930882991_);}
	.st3{fill:url(#SVGID_00000046313689283021644530000012912039958066642862_);}
	.st4{fill:url(#SVGID_00000162337687442657161640000016552738593832460681_);}
	.st5{fill:url(#SVGID_00000023243587104352223680000001538809685350415520_);}
	.st6{fill:url(#SVGID_00000043419785519030350260000015539441708903087264_);}
	.st7{fill:url(#SVGID_00000085944406107596485240000003333166328931507074_);}
	.st8{fill:url(#SVGID_00000139984898283640130510000012197193017063603611_);}
	.st9{fill:url(#SVGID_00000054948172486324733260000000276493987755987614_);}
	.st10{fill:url(#SVGID_00000075161186490330115540000014762083600746978945_);}
	.st11{fill:url(#SVGID_00000120550932767944743760000013522217809009496737_);}
</style>
<g>
	<g>
		<g>
			<g>
				<g>
					<path class="st0" d="M257.8,29.4c-7.1-5.6-17.5-8.4-31.1-8.4H206c-0.5,0-0.8,0.3-0.8,0.8v69.8c0,0.5,0.3,0.8,0.8,0.8h21.4
						c13.4,0,23.7-3,30.6-9c6.9-6,10.4-15.1,10.4-27.2C268.5,44.1,264.9,35,257.8,29.4z M254.7,56.3c0,7.7-2,13.7-5.8,17.7
						c-3.9,4.1-10.3,6.1-19.2,6.1h-11V33.4h11c8.4,0,14.8,1.8,18.9,5.2C252.7,42,254.7,48,254.7,56.3z"/>
				</g>
				<g>
					<path class="st0" d="M308.6,47.2c-3.7-1.9-8-2.9-12.8-2.9c-4.8,0-9.2,1-12.9,2.9c-3.7,1.9-6.7,4.8-8.7,8.4c-2,3.6-3.1,8-3.1,13
						c0,5,1,9.3,3.1,12.9c2,3.6,5,6.4,8.7,8.4c3.7,1.9,8.1,2.9,12.9,2.9c4.8,0,9.1-1,12.8-2.9c3.7-1.9,6.7-4.8,8.8-8.4
						c2.1-3.6,3.2-8,3.2-12.9c0-5-1.1-9.3-3.2-13C315.3,51.9,312.4,49.1,308.6,47.2z M295.8,81.9c-3.8,0-6.8-1.3-8.9-3.8
						c-2.2-2.5-3.2-5.8-3.2-9.7c0-3.9,1.1-7.1,3.3-9.5c2.2-2.4,5.2-3.7,8.8-3.7c3.7,0,6.7,1.2,8.9,3.6c2.2,2.4,3.3,5.6,3.3,9.6
						c0,4-1,7.3-2.9,9.8C303.2,80.6,300.1,81.9,295.8,81.9z"/>
				</g>
				<g>
					<path class="st0" d="M366.1,48.8c-1.8-1.3-4.4-2.4-7.9-3.3c-2.9-0.8-6.1-1.2-9.5-1.2c-0.7,0-1.3,0-2,0
						c-4.6,0.2-9.1,1.7-13.2,4.5c-4.1,2.8-7,6.3-8.5,10.4c-1.1,2.9-1.6,6-1.6,9.2c0,4.7,1.2,9.1,3.5,13c2.3,4,5.7,7,10,9
						c3.5,1.6,7.6,2.4,12.2,2.4c2.9,0,5.8-0.3,8.4-1c2.7-0.7,5-1.6,7-2.9c0.4-0.3,0.6-0.7,0.6-1.1l0.4-9.6c0-1-0.7-1-0.8-1
						c-0.2,0-0.4,0.1-0.7,0.2l0,0l0,0c-1.7,1.4-3.8,2.5-6.1,3.3c-2.4,0.7-4.8,1.1-7.2,1.1c-2.8,0-5.4-0.5-7.7-1.5
						c-2-0.8-3.6-2.3-4.9-4.4c-1.3-2.1-2-4.5-2-7.3c0-1,0.1-2.3,0.4-3.7c0.7-3.2,2.4-5.7,4.9-7.3c2.6-1.7,5.5-2.5,8.7-2.5
						c4.5,0,8.7,1.7,12.4,4.9c0.2,0.2,0.5,0.3,0.7,0.3c0.2,0,0.7-0.1,0.8-0.8l2.5-9.5C366.7,49.5,366.5,49.1,366.1,48.8z"/>
				</g>
				<g>
					<path class="st0" d="M404,44.6h-13.1v-8.4c0-0.6-0.4-1-1-1h-6.6c-0.5,0-0.9,0.3-1.1,0.8l-3.7,8.7h-6.8c-0.5,0-0.9,0.3-1,0.9
						l-2.5,9l0,0l0,0c-0.1,0.4,0,0.7,0.2,0.9c0.1,0.1,0.3,0.3,0.7,0.3h9v23.1c0,4.4,1.4,7.9,4,10.3c2.7,2.4,6.2,3.6,10.5,3.6
						c4.9,0,8.7-1,11.5-3.1l0,0l0,0c0.2-0.2,0.3-0.5,0.3-1v-7.4c0-0.8-0.5-1-1-1h-0.2h-0.1l-0.1,0c-3.2,1.2-5.9,1.8-7.8,1.8
						c-3.1,0-4.5-1.6-4.5-5.1V55.7h9.9c0.6,0,1-0.3,1.1-0.8l3.1-9c0.1-0.4,0.1-0.7-0.1-0.9C404.7,44.8,404.5,44.6,404,44.6z"/>
				</g>
				<g>
					<path class="st0" d="M443,47.2c-3.7-1.9-8-2.9-12.8-2.9c-4.8,0-9.2,1-12.9,2.9c-3.7,1.9-6.7,4.8-8.7,8.4c-2,3.6-3.1,8-3.1,13
						c0,5,1,9.3,3.1,12.9c2,3.6,5,6.4,8.7,8.4c3.7,1.9,8.1,2.9,12.9,2.9c4.8,0,9.1-1,12.8-2.9c3.7-1.9,6.7-4.8,8.8-8.4
						c2.1-3.6,3.2-8,3.2-12.9c0-5-1.1-9.3-3.2-13C449.7,51.9,446.7,49.1,443,47.2z M442.4,68.4c0,4-1,7.3-2.9,9.8
						c-1.9,2.5-5.1,3.7-9.3,3.7c-3.8,0-6.8-1.3-8.9-3.8c-2.2-2.5-3.2-5.8-3.2-9.7c0-3.9,1.1-7.1,3.3-9.5c2.2-2.4,5.2-3.7,8.8-3.7
						c3.7,0,6.7,1.2,8.9,3.6C441.3,61.1,442.4,64.4,442.4,68.4z"/>
				</g>
				<g>
					<path class="st0" d="M489.9,45.3c-2-0.7-4-1-5.9-1c-2.9,0-5.6,0.7-8.1,2.1c-2,1.1-3.8,2.7-5.3,4.7l0.3-6.6c0-0.8-0.5-1.1-1-1.1
						h-0.2h-0.1l-0.1,0l-10.3,2.4c-0.6,0.2-0.7,0.3-0.7,1.2c0,0.9,0,7.4,0,13.6v31.1c0,0.6,0.4,1,1,1h10.6c0.6,0,1-0.4,1-1v-30
						c1.5-1.8,3-3.1,4.7-4c1.7-0.9,3.6-1.4,5.8-1.4c1.6,0,3,0.2,4,0.6c1,0.4,1.8,1,2.5,1.9c0.3,0.4,0.5,0.6,0.7,0.6
						c0.1,0,0.2,0,0.3,0c0.2-0.1,0.5-0.1,0.5-0.9l0.7-12C490.7,45.9,490.4,45.5,489.9,45.3z"/>
				</g>
			</g>
		</g>
	</g>
	<linearGradient id="SVGID_1_" gradientUnits="userSpaceOnUse" x1="498.6106" y1="91.0748" x2="498.6344" y2="91.0748">
		<stop  offset="0" style="stop-color:#2CB9DC"/>
		<stop  offset="0.1387" style="stop-color:#3DBCDD"/>
		<stop  offset="0.6187" style="stop-color:#5CC3DF"/>
		<stop  offset="1" style="stop-color:#65C5E0"/>
	</linearGradient>
	<polygon class="st1" points="498.6,91.1 498.6,91 498.6,91.1 	"/>
	
		<linearGradient id="SVGID_00000124855179132369327520000009924819381651347119_" gradientUnits="userSpaceOnUse" x1="498.6377" y1="91.1757" x2="498.6546" y2="91.1757">
		<stop  offset="0" style="stop-color:#2CB9DC"/>
		<stop  offset="0.1387" style="stop-color:#3DBCDD"/>
		<stop  offset="0.6187" style="stop-color:#5CC3DF"/>
		<stop  offset="1" style="stop-color:#65C5E0"/>
	</linearGradient>
	<polygon style="fill:url(#SVGID_00000124855179132369327520000009924819381651347119_);" points="498.7,91.2 498.6,91.1 
		498.7,91.2 	"/>
	
		<linearGradient id="SVGID_00000082363714766811982500000015211986212386492297_" gradientUnits="userSpaceOnUse" x1="497.6281" y1="91.3044" x2="497.6941" y2="91.3044">
		<stop  offset="0" style="stop-color:#2CB9DC"/>
		<stop  offset="0.1387" style="stop-color:#3DBCDD"/>
		<stop  offset="0.6187" style="stop-color:#5CC3DF"/>
		<stop  offset="1" style="stop-color:#65C5E0"/>
	</linearGradient>
	<path style="fill:url(#SVGID_00000082363714766811982500000015211986212386492297_);" d="M497.6,91.2l0,0.2h0.1
		C497.7,91.3,497.6,91.3,497.6,91.2L497.6,91.2z"/>
	
		<linearGradient id="SVGID_00000138531327015104426990000000983154011424616095_" gradientUnits="userSpaceOnUse" x1="497.6298" y1="91.1163" x2="497.6315" y2="91.1163">
		<stop  offset="0" style="stop-color:#2CB9DC"/>
		<stop  offset="0.1387" style="stop-color:#3DBCDD"/>
		<stop  offset="0.6187" style="stop-color:#5CC3DF"/>
		<stop  offset="1" style="stop-color:#65C5E0"/>
	</linearGradient>
	<polygon style="fill:url(#SVGID_00000138531327015104426990000000983154011424616095_);" points="497.6,91 497.6,91.2 497.6,91.2 	
		"/>
	
		<linearGradient id="SVGID_00000000929093260091089090000008869750294137510303_" gradientUnits="userSpaceOnUse" x1="497.6315" y1="91.2172" x2="498.4666" y2="91.2172">
		<stop  offset="0" style="stop-color:#2CB9DC"/>
		<stop  offset="0.1387" style="stop-color:#3DBCDD"/>
		<stop  offset="0.6187" style="stop-color:#5CC3DF"/>
		<stop  offset="1" style="stop-color:#65C5E0"/>
	</linearGradient>
	<path style="fill:url(#SVGID_00000000929093260091089090000008869750294137510303_);" d="M498.5,91.2h-0.8H498.5
		C498.5,91.2,498.5,91.2,498.5,91.2z"/>
	
		<linearGradient id="SVGID_00000021079958879450780210000016350055715428044424_" gradientUnits="userSpaceOnUse" x1="498.6343" y1="91.1757" x2="498.6546" y2="91.1757">
		<stop  offset="0" style="stop-color:#2CB9DC"/>
		<stop  offset="0.1387" style="stop-color:#3DBCDD"/>
		<stop  offset="0.6187" style="stop-color:#5CC3DF"/>
		<stop  offset="1" style="stop-color:#65C5E0"/>
	</linearGradient>
	<polygon style="fill:url(#SVGID_00000021079958879450780210000016350055715428044424_);" points="498.7,91.2 498.6,91.1 
		498.6,91.1 498.6,91.1 	"/>
	<path class="st0" d="M562.9,21.6h-13.3c-0.3,0-0.6,0.2-0.8,0.5l-17.6,28c-0.1,0.2-0.2,0.3-0.3,0.2c-0.2,0-0.3-0.1-0.4-0.2L511.4,22
		c-0.2-0.2-0.4-0.4-0.8-0.4h-12.4c-0.4,0-0.6,0.2-0.6,0.6V91h0.2h0.5h0.3l0,0.1h0l0,0.1v0v0.2l-1,0c0.1,0.2,0.2,0.4,0.5,0.4h11.7
		c0.4,0,0.6-0.2,0.6-0.6V40.8l19.6,28.3c0.3,0.3,0.5,0.4,0.7,0.4c0.1,0,0.3-0.1,0.6-0.4l19.4-27.4v49.5c0,0.4,0.2,0.6,0.6,0.6h11.7
		c0.4,0,0.6-0.2,0.6-0.6v-69C563.4,21.8,563.3,21.6,562.9,21.6z"/>
	
		<linearGradient id="SVGID_00000003821750629803658320000006478478572856150949_" gradientUnits="userSpaceOnUse" x1="497.6315" y1="91.2188" x2="498.6546" y2="91.2188">
		<stop  offset="0" style="stop-color:#2CB9DC"/>
		<stop  offset="0.1387" style="stop-color:#3DBCDD"/>
		<stop  offset="0.6187" style="stop-color:#5CC3DF"/>
		<stop  offset="1" style="stop-color:#65C5E0"/>
	</linearGradient>
	<path style="fill:url(#SVGID_00000003821750629803658320000006478478572856150949_);" d="M498.7,91.2L498.7,91.2l-0.4-0.1V91h-0.5
		h-0.2v0.2h0.8c0,0,0,0,0,0l-0.8,0c0,0.1,0,0.1,0.1,0.2l1,0V91.2z"/>
	
		<linearGradient id="SVGID_00000179608984587445061980000015365893779203432325_" gradientUnits="userSpaceOnUse" x1="498.2769" y1="91.0748" x2="498.6343" y2="91.0748">
		<stop  offset="0" style="stop-color:#2CB9DC"/>
		<stop  offset="0.1387" style="stop-color:#3DBCDD"/>
		<stop  offset="0.6187" style="stop-color:#5CC3DF"/>
		<stop  offset="1" style="stop-color:#65C5E0"/>
	</linearGradient>
	<polygon style="fill:url(#SVGID_00000179608984587445061980000015365893779203432325_);" points="498.6,91.1 498.6,91 498.3,91 
		498.3,91.1 	"/>
	<path class="st0" d="M584.4,61.1c0.5-1.7,1.3-3.1,2.3-4.2C585.7,58,584.9,59.4,584.4,61.1z"/>
	<g>
		<path class="st0" d="M604,61.1c-0.1-1-0.3-1.9-0.7-2.8C603.7,59.1,603.9,60.1,604,61.1z"/>
		<path class="st0" d="M614.1,53.8c-1.8-3.7-4.5-6.6-7.8-8.6c-3.4-2.1-7.4-3.1-11.9-3.1c-4.6,0-8.7,1.1-12.5,3.3
			c-3.7,2.2-6.7,5.3-8.8,9.2c-2.1,3.9-3.2,8.2-3.2,13c0,5.7,1.5,10.6,4.5,14.7c3,4.1,7.2,7,12.5,8.6c2.5,0.8,5.6,1.2,9.4,1.2
			c3.4,0,6.7-0.4,9.8-1.1c3.1-0.8,5.5-1.8,7.4-3.3c0.3-0.2,0.5-0.6,0.5-1l0.8-10.1c0-0.6-0.2-0.7-0.7-0.4c-2.3,2.1-4.8,3.5-7.5,4.4
			c-2.7,0.8-5.6,1.3-8.8,1.3c-8.9,0-13.9-3.5-15-10.6h33.3c0.4,0,0.6-0.2,0.7-0.6c0.2-1.4,0.3-2.9,0.3-4.2
			C616.8,61.7,615.9,57.5,614.1,53.8z M584.4,61.1c0.5-1.7,1.3-3.1,2.3-4.2c0.3-0.4,0.7-0.7,1.1-1.1c1.7-1.5,4.1-2.2,7-2.2
			c1.4,0,2.7,0.2,3.9,0.6c1.1,0.4,2.1,1,3,1.8c0.7,0.7,1.3,1.5,1.7,2.3c0.4,0.8,0.6,1.8,0.7,2.8H584.4z"/>
	</g>
	<g>
		<path class="st0" d="M212.3,115.2h9.1c1.4,0,2.1,0.7,2.1,2.2c0,1.4-0.7,2.1-2.1,2.1h-3.8v2.1c0,0.4,0,0.7,0,0.9h4.9
			c1.4,0,2.1,0.7,2.1,2.1c0,1.4-0.7,2.2-2.1,2.2h-5.4c1.2,0.7,3,1.7,5.5,3.1c0.8,0.5,1.2,1,1.2,1.5c0,0.5-0.4,1-1.2,1.7
			c-0.6,0.6-1.2,0.9-1.7,0.9c-0.5,0-1-0.2-1.7-0.7c-0.9-0.7-2.3-1.8-4.3-3.1c-1.4,2-3.4,3.8-6,5.3c-1.6,0.9-2.9,0.8-3.8-0.2
			c-1.3-1.5-0.7-2.8,1.8-4.1c2-1.3,3.4-2.8,4.3-4.5h-5.4c-1.4,0-2.1-0.7-2.1-2.2c0-1.4,0.7-2.1,2.1-2.1h0.9
			c-0.3-0.2-0.9-0.6-1.9-1.1c-0.4-0.2-0.7-0.5-0.7-0.9c-0.1-0.4,0.1-0.8,0.4-1.2c1.2-1.5,2.2-3.3,3-5.4c0.4-1.5,1.5-2.1,3-1.8
			C212.4,112.3,212.9,113.4,212.3,115.2z M209.2,121c-0.1,0.1-0.2,0.2-0.3,0.4c-0.1,0.2-0.2,0.4-0.3,0.4c-0.3,0.4-0.2,0.5,0.3,0.5
			h3.6c0-0.2,0-0.6,0-1v-2h-2.3C210,119.8,209.7,120.3,209.2,121z M212.8,135.3h23.7c0.9,0,1.6,0.3,2.2,0.8c0.6,0.6,0.8,1.3,0.8,2.2
			v12.5c0,0.9-0.3,1.6-0.8,2.2c-0.6,0.5-1.3,0.8-2.2,0.8h-23.7c-0.9,0-1.6-0.3-2.2-0.8c-0.6-0.5-0.8-1.3-0.8-2.2v-12.5
			c0-0.9,0.3-1.6,0.8-2.2C211.2,135.6,211.9,135.3,212.8,135.3z M215.2,142.4H234v-1.8c0-0.7-0.4-1.1-1.1-1.1h-16.5
			c-0.7,0-1.1,0.4-1.1,1.1V142.4z M234,146.4h-18.8v1.9c0,0.7,0.4,1.1,1.1,1.1h16.5c0.7,0,1.1-0.4,1.1-1.1V146.4z M240.4,132.5
			h-11.3c-0.9,0-1.6-0.3-2.2-0.8c-0.5-0.6-0.8-1.3-0.8-2.2v-11.4c0-0.9,0.3-1.6,0.8-2.2c0.5-0.6,1.3-0.8,2.2-0.8h11.3
			c0.9,0,1.6,0.3,2.2,0.8c0.6,0.6,0.8,1.3,0.8,2.2v11.4c0,0.9-0.3,1.6-0.8,2.2C242,132.3,241.3,132.5,240.4,132.5z M231.1,121.1v5.5
			c0,0.7,0.4,1.1,1.1,1.1h4.7c0.7,0,1.1-0.4,1.1-1.1v-5.5c0-0.7-0.4-1.1-1.1-1.1h-4.7C231.5,119.9,231.1,120.3,231.1,121.1z"/>
		<path class="st0" d="M260.4,147.2c-1,2.3-2.2,4.1-3.6,5.4c-1,0.9-2.1,0.9-3.2,0.1c-1.7-1.3-1.8-2.6-0.2-4c1-1.1,1.7-2.2,2.2-3.1
			c0.7-1.5,1.8-2,3.4-1.4C260.5,144.7,261,145.7,260.4,147.2z M257.5,128.6h28c0.9,0,1.6,0.3,2.2,0.8c0.5,0.6,0.8,1.3,0.8,2.2v2h2.4
			c1,0,1.6,0.5,1.6,1.6c0,1.1-0.5,1.6-1.6,1.6h-2.4v2.6c0,0.7-0.2,1.3-0.6,1.7c-0.4,0.4-1,0.6-1.7,0.6h-11.4
			c0.1,0.1,0.4,0.3,0.7,0.5c0.3,0.3,0.6,0.4,0.7,0.6c1.1,1.1,1.1,2.1-0.1,3.2c-1.3,1.1-2.4,1.1-3.5,0c-1.6-1.4-2.8-2.3-3.6-2.7
			c-0.7-0.4-0.6-0.9,0-1.6h-11.7c-1.1,0-1.7-0.5-1.7-1.6c0-1.1,0.6-1.7,1.7-1.7h24.9c0.7,0,1.1-0.4,1.1-1.1v-0.6h-29.3
			c-1,0-1.5-0.5-1.5-1.6c0-1,0.5-1.6,1.5-1.6h29.3v-1c0-0.5-0.2-0.7-0.7-0.7h-25c-1.1,0-1.7-0.6-1.7-1.7
			C255.8,129.1,256.4,128.6,257.5,128.6z M256.1,126.8l-1.8,0.1c-1.1,0-1.7-0.5-1.8-1.7c-0.1-0.6,0-1.1,0.2-1.4
			c0.2-0.3,0.6-0.4,1.2-0.5c2.7-0.1,4.6-0.1,5.7-0.2v-1.7h-4c-1,0-1.6-0.5-1.6-1.6c0-1,0.5-1.6,1.6-1.6h4v-0.9
			c0-0.4-0.2-0.6-0.5-0.6h-4.6c-1,0-1.6-0.5-1.6-1.6c0-1,0.5-1.5,1.6-1.5h5.2v-0.1c0-0.6,0.3-1,0.8-1.3c0.5-0.3,1.1-0.5,1.7-0.5
			c0.7,0,1.2,0.2,1.7,0.5c0.5,0.3,0.7,0.8,0.7,1.3v0.1h4.6c1,0,1.6,0.5,1.6,1.5c0,1.1-0.5,1.6-1.6,1.6h-3.5c-0.7,0-1.1,0.4-1.1,1.1
			v0.3h4.1c1,0,1.6,0.5,1.6,1.6c0,1.1-0.5,1.6-1.6,1.6h-4.1v0.9c0,0.4,0.2,0.6,0.6,0.5l3.9-0.1c0.6,0,1,0.1,1.3,0.4
			c0.3,0.3,0.4,0.7,0.4,1.3c0,1.1-0.6,1.6-1.6,1.7c-1,0.1-2.6,0.2-4.6,0.3v0.1c0,0.5-0.3,0.9-0.9,1.2c-0.6,0.3-1.2,0.4-1.8,0.4
			c-0.5,0-1-0.1-1.5-0.4c-0.5-0.3-0.8-0.6-0.8-1v-0.1L256.1,126.8z M277.4,154H270c-2.9,0-4.8-0.4-5.8-1.2c-1-0.8-1.5-2.4-1.5-4.7
			v-2.2c0-1.8,0.9-2.7,2.7-2.7s2.7,0.9,2.7,2.7v2.2c0,0.6,0.1,0.9,0.4,1.1c0.3,0.2,0.9,0.2,2,0.2h6.2c0.4,0,0.7,0,0.8,0
			c0.9-2.3,2.3-3,4.2-2.3c1.3,0.5,1.7,1.8,1.2,4c-0.4,1.1-1,1.9-1.9,2.4C280.2,153.8,279,154,277.4,154z M290.4,126.2h-6.5v0.1
			c0,0.5-0.2,1-0.7,1.3s-1.1,0.5-1.7,0.5c-0.7,0-1.2-0.2-1.7-0.5c-0.5-0.3-0.7-0.7-0.7-1.3v-0.1h-5.2c-1.1,0-1.6-0.5-1.6-1.6
			c0-1,0.5-1.6,1.6-1.6h4.1c0.7,0,1.1-0.4,1.1-1.1v-0.4h-4c-1,0-1.5-0.5-1.5-1.6c0-1,0.5-1.6,1.5-1.6h4v-0.9c0-0.4-0.2-0.6-0.6-0.6
			h-4.3c-1,0-1.6-0.5-1.6-1.6c0-1,0.5-1.5,1.6-1.5h4.9v-0.1c0-0.6,0.2-1,0.7-1.3c0.5-0.3,1.1-0.5,1.7-0.5c0.7,0,1.2,0.2,1.7,0.5
			c0.5,0.3,0.7,0.8,0.7,1.3v0.1h5.6c1,0,1.6,0.5,1.6,1.5c0,1.1-0.5,1.6-1.6,1.6h-4.5c-0.7,0-1.1,0.4-1.1,1.1v0.3h4.8
			c1,0,1.5,0.5,1.5,1.6c0,1.1-0.5,1.6-1.5,1.6h-4.8v0.9c0,0.4,0.2,0.6,0.6,0.6h5.9c1,0,1.6,0.5,1.6,1.6
			C292,125.6,291.5,126.2,290.4,126.2z M287.5,151.4c-0.9-1.1-2-2.5-3.5-4.1c-1.4-1.3-1.3-2.5,0.4-3.5c1.1-0.6,2.1-0.5,3.1,0.3
			c2,1.7,3.6,3.4,4.9,5c0.4,0.7,0.5,1.4,0.4,1.8c-0.2,0.5-0.6,0.9-1.4,1.4C289.7,153.2,288.4,152.9,287.5,151.4z"/>
		<path class="st0" d="M336.4,117.6c0.3,0,0.5,0,0.6-0.1c0.1-0.1,0.2-0.2,0.2-0.5v0c0.1-0.5,0.3-0.8,0.6-0.9
			c0.4-0.1,0.7-0.1,1.2,0.2c0.6,0.3,1,0.8,1.2,1.5c0.2,0.7,0.1,1.3-0.2,2c-0.6,0.9-1.7,1.4-3.4,1.4h-1.9c-1.3,0-2.2-0.3-2.8-0.9
			c-0.4-0.4-0.6-1.1-0.8-2c0-1.1-0.4-1.6-1.2-1.6H327c-0.1,1.6-0.8,3-2,4.2c-0.7,0.6-0.7,0.9,0.1,0.9h9.4c1,0,1.8,0.3,2.1,0.9
			c0.4,0.6,0.3,1.5-0.2,2.6c-0.7,1.3-1.7,2.5-3.1,3.6c1,0.3,2.2,0.6,3.6,0.9c1.1,0.1,1.9,0.5,2.2,1.2c0.3,0.6,0.1,1.4-0.5,2.3
			c0,0.1-0.1,0.2-0.2,0.4c-0.1,0.1-0.2,0.3-0.2,0.4h0.1c1.1,0,1.7,0.6,1.7,1.7c0,1.2-0.6,1.7-1.7,1.7h-12.6v1.5h9
			c0.9,0,1.6,0.3,2.2,0.8c0.5,0.5,0.8,1.3,0.8,2.2v9.1c0,0.9-0.3,1.6-0.8,2.2c-0.5,0.6-1.3,0.8-2.2,0.8h-29.2
			c-0.9,0-1.6-0.3-2.2-0.8c-0.5-0.6-0.8-1.3-0.8-2.2v-9.1c0-0.9,0.3-1.6,0.8-2.2c0.5-0.5,1.3-0.8,2.2-0.8h8.2v-1.5H302
			c-1.2,0-1.7-0.6-1.7-1.7c0-1.2,0.6-1.7,1.7-1.7h34.6c-2.8-0.5-5.3-1.3-7.4-2.4c-1.4,0.6-2.7,1.1-4,1.4c-1.8,0.4-3.2-0.2-4-1.7
			c-0.1-0.1-0.3-0.4-0.6-0.8v1.3c0,0.6-0.3,0.9-0.9,0.9h-15.2c-0.9,0-1.6-0.3-2.2-0.8c-0.6-0.5-0.8-1.3-0.8-2.2v-13.2
			c0-0.9,0.3-1.6,0.8-2.2c0.6-0.6,1.3-0.8,2.2-0.8h14.3c1,0,1.5,0.5,1.5,1.5c0,1-0.5,1.6-1.5,1.6h-8.2l0.7,0.2
			c0.3,0,0.4,0.2,0.4,0.4c0,0.3-0.1,0.5-0.2,0.7c-0.1,0.2,0,0.3,0.3,0.3h5.8c0.8,0,1.2,0.4,1.2,1.3c0,0.8-0.4,1.2-1.2,1.2h-2.8v1.4
			h3.6c0.9,0,1.3,0.4,1.3,1.3c0,0.9-0.4,1.3-1.3,1.3h-2.8c0.7,0.4,1.5,0.9,2.3,1.5c0.4,0.3,0.7,0.8,0.7,1.3c0,0.6-0.2,1.1-0.6,1.6
			l-0.4,0.4h2.4c0.4,0,0.7,0.2,0.7,0.7v0.1c1.7-0.3,3.4-0.7,5.1-1.3c-0.5-0.4-1.1-1-1.7-1.8c-0.4-0.6-0.5-1.1-0.4-1.5
			c0.1-0.4,0.5-0.7,1.2-0.9l0.6-0.1h-1.9c-1.1,0-1.7-0.5-1.7-1.6v-0.6c-0.3-0.4-0.8-1-1.5-1.7c-0.9-0.7-0.5-1.5,1.2-2.4
			c1-0.8,1.5-1.8,1.5-3v-1.3c0-0.7,0.3-1,1-1h8.2c0.9,0,1.6,0.3,2.2,0.8c0.6,0.6,0.8,1.3,0.8,2.2v0.5c0,0.1,0,0.1,0,0.3
			c0,0.1,0,0.2,0,0.2s0,0.1,0,0.2c0,0.1,0,0.2,0,0.2c0,0,0,0.1,0,0.1c0,0.1,0,0.1,0.1,0.1c0,0,0.1,0,0.2,0c0.1,0,0.1,0,0.2,0H336.4z
			 M305.5,117.5v10.7c0,0.7,0.4,1.1,1.1,1.1h1.5c-0.3-0.4-0.7-0.9-1.1-1.3c-0.7-0.6-0.4-1.1,0.8-1.5c1.3-0.5,2.3-1.2,2.9-2.1h-3.4
			c-0.8,0-1.3-0.4-1.3-1.3c0-0.9,0.4-1.3,1.3-1.3h1c-0.4-0.3-0.9-0.6-1.5-0.9c-0.8-0.4-0.9-1-0.2-1.7c0.8-1,1.4-1.9,1.8-2.9h-1.9
			C305.8,116.4,305.5,116.7,305.5,117.5z M309.3,144.2c2.3-0.7,3.6-1.6,4.1-2.6h-4.8c-0.7,0-1.1,0.4-1.1,1.1v4.3h2.2
			c-0.2-0.4-0.6-0.9-1.1-1.4C307.8,144.8,308.1,144.4,309.3,144.2z M332.7,149.6h-25.2v0.8c0,0.3,0.2,0.4,0.5,0.4h23.6
			c0.7,0,1.1-0.4,1.1-1.1V149.6z M309.7,120.4c-0.1,0.1-0.3,0.4-0.6,0.7c-0.3,0.3-0.5,0.5-0.6,0.7h2.8v-1.4H309.7z M308.8,129.3h7.4
			c0.7,0,0.9-0.2,0.4-0.6c-1.3-1-2.4-1.9-3.3-2.4C312.4,127.5,310.9,128.5,308.8,129.3z M311.6,147h21.1v-1.3h-6.1
			c-2,0-3.4-0.2-4-0.7c-0.7-0.5-1-1.4-1-2.9v-0.5h-3.9C317.1,144,315.1,145.8,311.6,147z M317.8,138.7h3.8v-1.5h-3.8V138.7z
			 M325.8,142.1c0,0.5,0.1,0.8,0.3,0.9c0.2,0.1,0.6,0.2,1.1,0.2h4.3c0.7,0,1.1-0.1,1.2-0.3h0v-0.8c0-0.4-0.2-0.6-0.6-0.6h-6.3V142.1
			z M329.5,127c0.9-0.6,1.7-1.4,2.6-2.4h-5.3C327.6,125.6,328.5,126.4,329.5,127z"/>
		<path class="st0" d="M386.4,120h-14.8l1.7,0.2c1.2,0.2,1.4,1.1,0.6,2.7h12.4c1.3,0,2,0.7,2,2c0,1.4-0.7,2.1-2,2.1h-1.1l1.6,1.2
			c0.9,0.7,1,1.4,0.1,2.2l-1.9,1.5c0.1,0.1,0.4,0.2,0.7,0.4c0.3,0.2,0.5,0.3,0.7,0.4c1,0.4,1.6,0.9,1.8,1.5c0.2,0.5-0.1,1.2-0.7,2.1
			c-1,1.2-2.2,1.3-3.8,0.3v4.5c0,0.9-0.3,1.6-0.8,2.2c-0.5,0.6-1.3,0.8-2.2,0.8h-5v5.9c0,1.2-0.1,2-0.4,2.6
			c-0.3,0.6-0.8,1.1-1.6,1.4c-1,0.4-2.4,0.6-4,0.7c-1.6,0-2.6-0.6-3-1.7c-0.3-0.9-0.3-1.6,0.2-2c0.4-0.4,1.2-0.6,2.3-0.6h0.7
			c0.4,0,0.6-0.2,0.6-0.6v-5.7h-4.7c-0.9,0-1.6-0.3-2.2-0.8c-0.6-0.6-0.8-1.3-0.8-2.2v-4.5c-1.7,1.2-2.8,1.4-3.4,0.5
			c-0.4-0.6-1-1.2-1.8-1.9c-0.5,7.4-2.1,13.1-4.8,17.2c-0.6,0.8-1.2,1.2-1.8,1.3c-0.6,0.1-1.2-0.2-1.9-0.9c-1.2-1.2-1.2-2.5-0.1-4
			c1.7-2.7,2.8-5.9,3.3-9.6c-0.2,0.1-0.6,0.4-1.1,0.7c-0.5,0.3-0.9,0.5-1.1,0.7c-1.7,1-2.8,0.6-3.4-1.3c-0.2-0.7-0.3-1.4-0.1-1.9
			c0.2-0.5,0.6-0.9,1.3-1.2c0.6-0.3,1.5-0.7,2.7-1.3c1.2-0.6,2-1,2.3-1.1c0-0.8,0-2,0-3.6v-1.6l-2.1,1c-0.6,0.2-1.1,0.3-1.5,0.1
			c-0.4-0.2-0.6-0.5-0.7-0.9c-0.3-1.6-0.8-3.5-1.5-5.5c-0.5-1.4-0.1-2.3,1.3-2.8c1.3-0.5,2.2-0.1,2.7,1.2c0.9,2.2,1.5,4.2,1.8,6.1
			v-9.2c0-0.9,0.3-1.6,0.8-2.2c0.6-0.5,1.3-0.8,2.2-0.8H367v-0.8c0-1.9,1-2.8,2.9-2.8c1.9,0,2.9,0.9,2.9,2.8v0.8h13.6
			c1.5,0,2.3,0.8,2.3,2.3S387.9,120,386.4,120z M369.8,120h-10.9c-0.7,0-1.1,0.4-1.1,1.1v9c0,0.8,0,2.1-0.1,3.9
			c1.4-0.7,2.7-1.4,3.9-2.4c-0.3-0.2-0.6-0.5-1.1-0.9c-1.1-0.8-1.2-1.7-0.1-2.6c0.8-0.7,1.6-0.8,2.3-0.2c0.5,0.4,1.1,0.8,1.7,1.2
			c0.6-0.7,1.2-1.4,1.8-2.2h-4.9c-1.3,0-2-0.7-2-2.1c0-1.3,0.7-2,2-2h7.4C369.2,121.8,369.6,120.8,369.8,120z M365.9,148.4
			c-0.9,1.4-2.1,2.8-3.7,4.2c-1.1,0.9-2.2,1-3.3,0.1c-0.9-0.7-1.3-1.4-1.2-2c0.1-0.6,0.6-1.3,1.5-2c0.9-0.9,1.7-1.7,2.2-2.5
			c0.7-1.2,1.8-1.6,3.2-1.2C366.5,145.7,366.9,146.8,365.9,148.4z M367.4,136h11.7v-1.7h-11.7V136z M368.1,140.8h9.9
			c0.7,0,1.1-0.4,1.1-1.1v-0.6h-11.7v1C367.4,140.6,367.6,140.8,368.1,140.8z M369.1,131.1h8.7c-1-1.3-2-2.6-2.7-4.1h-3.1
			C371.1,128.4,370.2,129.8,369.1,131.1z M381.3,150.5c-0.1-0.2-0.4-0.5-0.8-0.9c-0.4-0.4-0.6-0.7-0.8-0.9c-1.3-1.3-1.1-2.4,0.6-3.2
			c1-0.5,2-0.4,2.8,0.4c1.5,1.5,2.8,2.8,3.8,4c0.5,0.7,0.6,1.3,0.5,1.7c-0.1,0.4-0.6,0.8-1.4,1.2c-1.5,0.7-2.6,0.5-3.3-0.7
			c-0.1-0.2-0.4-0.5-0.7-0.9C381.7,150.9,381.4,150.6,381.3,150.5z M383.7,128.2c0.1-0.1,0.3-0.3,0.6-0.6c0.3-0.3,0.5-0.5,0.6-0.6
			h-5.1c0.5,0.7,1.3,1.6,2.4,2.6C382.6,129.3,383.1,128.9,383.7,128.2z"/>
		<path class="st0" d="M433.7,152.8h-36.2c-1.7,0-2.6-0.9-2.6-2.6c0-1.7,0.9-2.6,2.6-2.6h22.1c0.5-3,0.8-5,1-6h-13.5v0.1
			c-0.4,1.3-1.3,2-2.9,1.9c-1.2-0.1-2-0.3-2.5-0.8c-0.5-0.5-0.6-1.2-0.3-2.2c1.8-6.6,3.3-13.7,4.6-21.3h-7.1c-1.7,0-2.5-0.9-2.5-2.6
			c0-1.7,0.8-2.5,2.5-2.5h33.6c1.7,0,2.5,0.8,2.5,2.5c0,1.7-0.8,2.6-2.5,2.6h-20.6c-0.1,0.8-0.5,2.6-1,5.2h14.4c1,0,1.7,0.3,2.2,0.9
			c0.5,0.6,0.7,1.4,0.6,2.3c-0.7,7.2-1.6,13.8-2.6,20h8.2c1.7,0,2.5,0.9,2.5,2.6C436.2,151.9,435.3,152.8,433.7,152.8z M408.2,136.8
			h13c0.1-1.2,0.4-3.7,0.9-7.4h-12.3c-0.2,1-0.5,2.4-0.9,4.4C408.4,135.7,408.2,136.7,408.2,136.8z"/>
		<path class="st0" d="M474.3,122.1h7c0.7,0,1.3,0.3,1.6,0.9c0.3,0.6,0.5,1.8,0.5,3.4c-0.2,9-0.5,15.3-0.8,18.9
			c-0.3,3.6-0.8,5.8-1.5,6.8c-0.7,1-1.5,1.7-2.3,1.9c-0.8,0.3-2.1,0.5-3.9,0.6c-1,0-1.7-0.3-2.4-0.7c-0.6-0.5-1-1.1-1.1-1.9
			c0,0,0-0.1,0-0.1c0,0,0-0.1,0-0.1c-0.3-0.8-0.3-1.4,0-1.8c0.3-0.4,1-0.6,2-0.5c0.4,0,0.9,0,1.6,0c0.7,0,1.2-0.3,1.6-0.8
			c0.9-1.2,1.4-7.7,1.7-19.5c0-0.9,0-1.4-0.2-1.7c-0.2-0.3-0.5-0.4-0.9-0.4h-3c-0.3,6-1,11-2.2,15.2c-1.2,4.2-3.2,7.7-5.9,10.6
			c-0.7,0.6-1.4,0.9-2.2,0.9c-0.8-0.1-1.5-0.5-2.1-1.2c-0.3-0.4-0.7-0.8-1.2-1.2c-9.5,1-14.9,1.5-16.1,1.6c-0.7,0.1-1.2-0.1-1.6-0.4
			c-0.3-0.3-0.5-0.9-0.6-1.6c-0.1-0.8,0-1.4,0.2-1.8c0.3-0.4,0.8-0.6,1.6-0.7c0.1,0,2.4-0.2,7.1-0.5v-2.8h-6.1
			c-1.3,0-1.9-0.6-1.9-1.9c0-1.3,0.6-1.9,1.9-1.9h6.1v-1.8h-4.9c-0.9,0-1.6-0.3-2.2-0.8c-0.5-0.5-0.8-1.3-0.8-2.2v-8.2
			c0-0.9,0.3-1.6,0.8-2.2c0.5-0.5,1.3-0.8,2.2-0.8h4.9v-1.8h-7c-1.3,0-2-0.7-2-2c0-1.3,0.7-2,2-2h7v-1.8c-2.7,0.2-4.7,0.3-5.9,0.3
			c-1.2,0-2-0.5-2.3-1.6c-0.4-1.5,0.2-2.2,1.9-2.3c5.9-0.4,11-1,15.6-1.8c0.6-0.1,1.1-0.1,1.4,0.1s0.7,0.6,1,1.2
			c1,1.6,0.6,2.6-1.2,3c-2.1,0.3-3.9,0.6-5.6,0.8v2.2h6.4c0.7,0,1.3,0.2,1.7,0.6c0.4,0.4,0.6,1,0.6,1.7v0.1h4.3c0-1.5,0-3.8,0-6.9
			c0-1.8,0.9-2.6,2.6-2.6s2.6,0.9,2.6,2.6C474.4,116.9,474.3,119.2,474.3,122.1z M451.2,128.8h-2.9c-0.5,0-0.7,0.2-0.7,0.7v1.3h3.6
			V128.8z M451.2,134h-3.6v1.2c0,0.6,0.3,0.9,0.9,0.9h2.7V134z M464.9,123.5h-8.7v1.8h5.1c0.9,0,1.6,0.3,2.2,0.8
			c0.6,0.5,0.8,1.3,0.8,2.2v8.2c0,0.9-0.3,1.6-0.8,2.2c-0.6,0.5-1.3,0.8-2.2,0.8h-5.1v1.8h6.3c1.3,0,1.9,0.6,1.9,1.9
			c0,1.3-0.6,1.9-1.9,1.9h-6.3v2.3c1.9-0.1,4.5-0.3,7.9-0.6c1.7-2.4,2.9-5.1,3.6-8.3c0.7-3.2,1.2-7,1.4-11.4h-2.2
			c-1.3,0-1.9-0.6-1.9-1.9V123.5z M458.8,128.8h-2.7v2h3.5v-1.2C459.7,129.1,459.4,128.8,458.8,128.8z M456.1,136.1h2.8
			c0.5,0,0.7-0.2,0.7-0.7V134h-3.5V136.1z"/>
	</g>
	<g>
		
			<linearGradient id="SVGID_00000081621857176198474670000002514622062519071897_" gradientUnits="userSpaceOnUse" x1="80" y1="159.6613" x2="80" y2="31.8306">
			<stop  offset="0" style="stop-color:#2CB9DC"/>
			<stop  offset="0.1387" style="stop-color:#3DBCDD"/>
			<stop  offset="0.6187" style="stop-color:#5CC3DF"/>
			<stop  offset="1" style="stop-color:#65C5E0"/>
		</linearGradient>
		<path style="fill:url(#SVGID_00000081621857176198474670000002514622062519071897_);" d="M135,31.8l-12.8,0
			c-6.3,0-12.1,3.3-15.4,8.6l-8.5,10c-3,3.5-6.9,6.3-11.4,7.5c-2,0.5-4.3,0.9-6.9,0.9c-2.6,0-5-0.4-7-1c-4.4-1.3-8.3-3.9-11.3-7.4
			l-8.4-9.9c-3.3-5.4-9.1-8.6-15.4-8.6l-12.8,0C11.2,32,0,43.3,0,57.1l0,84.7c0,9.8,8,17.8,17.8,17.8l124.2,0v0h0.1
			c9.8,0,17.8-8,17.8-17.8l0-84.7C160,43.3,148.8,32,135,31.8z M93.5,84.2c2.2,0,3.9,3,3.9,6.8s-1.8,6.8-3.9,6.8s-3.9-3-3.9-6.8
			S91.3,84.2,93.5,84.2z M66.4,84.2c2.2,0,3.9,3,3.9,6.8s-1.8,6.8-3.9,6.8c-2.2,0-3.9-3-3.9-6.8S64.2,84.2,66.4,84.2z M122.3,109.5
			c-0.1,0.6-0.4,1.4-1.5,2.1c-0.1,0-0.2,0.3-0.3,0.6c-0.1,0.6-0.2,1.3-0.3,1.9c-0.2,1-0.3,2-0.6,3c-1.6,6.4-5.1,12.1-10.5,16.9
			c-6.6,5.9-14.4,9.4-23.4,10.4c-2,0.2-4,0.3-6,0.3c-11,0-20.6-3.6-28.8-10.8c-6.6-5.9-10.4-13-11.3-21.4c0-0.2-0.1-0.5-0.1-0.7
			l-0.1-0.4c0-0.1,0-0.2-0.1-0.3c-0.1,0-0.2,0.1-0.3,0.1c-0.6,0.2-1.1,0.2-1.5,0c-0.3-0.2-0.5-0.7-0.6-1.3c0-0.4,0-1.4,0.4-2.1
			c0.8-1.3,2.1-2.1,3.9-2.6c0.7-0.2,1.3,0.1,1.7,0.6c0.4,0.5,0.4,1.2,0.2,1.9c-0.3,0.6-0.7,1.2-1.2,1.5c-0.5,0.4-0.7,0.8-0.4,1.6
			c0.2,0.5,0.4,1.1,0.5,1.6c0.6,1.7,1.2,3.4,1.9,5c3.9,7.8,10.4,13.6,19.1,17.2c5.4,2.2,11,3.3,16.8,3.3c10.2-0.1,18.8-3,26.3-8.8
			c5.5-4.3,9.4-9.8,11.5-16.5c0.1-0.4,0.2-0.9,0.4-1.3l0.1-0.4c0.1-0.5,0.1-0.8-0.5-1.2c-0.6-0.4-1.1-0.9-1.6-1.4
			c-0.6-0.7-0.6-1.6-0.1-2.3c0.5-0.8,1.4-1,2.1-0.6c0.2,0.1,0.4,0.2,0.6,0.3c0.9,0.5,1.8,0.9,2.5,1.6
			C122.2,108.3,122.3,109,122.3,109.5z"/>
		
			<linearGradient id="SVGID_00000175299091172232947530000010549826119507682944_" gradientUnits="userSpaceOnUse" x1="80" y1="47.3203" x2="80" y2="17.7111">
			<stop  offset="0" style="stop-color:#2CB9DC"/>
			<stop  offset="0.1387" style="stop-color:#3DBCDD"/>
			<stop  offset="0.6187" style="stop-color:#5CC3DF"/>
			<stop  offset="1" style="stop-color:#65C5E0"/>
		</linearGradient>
		<path style="fill:url(#SVGID_00000175299091172232947530000010549826119507682944_);" d="M75.5,47.3h8.9c1.4,0,2.4-1.1,2.4-2.4
			v-5.5h5.5c1.4,0,2.4-1.1,2.4-2.4v-8.9c0-1.4-1.1-2.4-2.4-2.4h-5.5v-5.5c0-1.4-1.1-2.4-2.4-2.4h-8.9c-1.4,0-2.4,1.1-2.4,2.4v5.5
			h-5.5c-1.4,0-2.4,1.1-2.4,2.4V37c0,1.4,1.1,2.4,2.4,2.4h5.5v5.5C73.1,46.2,74.2,47.3,75.5,47.3z"/>
		
			<linearGradient id="SVGID_00000127754163159505821350000007474228540297053595_" gradientUnits="userSpaceOnUse" x1="39.7346" y1="11.5352" x2="120.2654" y2="11.5352">
			<stop  offset="0" style="stop-color:#2CB9DC"/>
			<stop  offset="0.1387" style="stop-color:#3DBCDD"/>
			<stop  offset="0.6187" style="stop-color:#5CC3DF"/>
			<stop  offset="1" style="stop-color:#65C5E0"/>
		</linearGradient>
		<path style="fill:url(#SVGID_00000127754163159505821350000007474228540297053595_);" d="M40.2,22c0.3,0.5,0.8,0.8,1.4,0.9
			c0.5,0.1,1.1,0,1.6-0.4c1.3-0.9,2.9-2,4.2-2.9c4.1-3,7.2-4.8,11.9-7.1c14.6-7.3,26.4-7.1,40.9,0.1c5.1,2.6,8,4,12.7,7.2
			c1.3,0.9,2.8,1.9,4.1,2.8c0.4,0.3,0.8,0.4,1.2,0.4c0.1,0,0.3,0,0.4,0c0.6-0.1,1.1-0.5,1.4-1.1c0.6-1,0.3-2.4-0.6-3.1l-0.5-0.4
			c-5.5-4-10.8-7.7-16.5-11.6C96.4,2.8,88.4,0,79.6,0S63.9,2.4,57.9,6.4c-6,4.1-12,8.6-17.2,12.3C39.7,19.5,39.4,21,40.2,22L40.2,22
			z"/>
	</g>
</g>
</svg>
